<svg xmlns="http://www.w3.org/2000/svg" width="54" height="65" fill="none" viewBox="0 0 54 65">
  <g clip-path="url(#a)">
    <path fill="#fff" fill-rule="evenodd" d="M23.28 3.435V.478h7v2.939c3.26.373 6.264 1.374 8.642 3.324 3.29 2.696 4.784 6.698 4.703 11.498l-7-.119c.056-3.233-.901-4.95-2.14-5.965-.925-.759-2.292-1.36-4.204-1.674v16.804c2.505.495 5.251 1.297 7.686 2.71 3.547 2.058 6.458 5.447 7.001 10.701l.008.076.005.076c.308 5.172-.859 9.828-4.325 13.102-2.641 2.494-6.21 3.792-10.375 4.21v6.318h-7v-6.41c-3.974-.5-7.42-1.781-9.985-4.27-3.31-3.214-4.463-7.76-4.312-12.98l6.997.204c-.12 4.176.836 6.438 2.19 7.753 1.014.983 2.609 1.791 5.11 2.219V32.72a77.132 77.132 0 0 1-2.298-.793c-1.675-.615-3.472-1.385-5.103-2.505-1.67-1.146-3.177-2.667-4.24-4.754-1.054-2.07-1.568-4.494-1.568-7.305 0-4.088 1.397-7.854 4.58-10.504 2.281-1.897 5.219-3.004 8.629-3.424Zm0 7.075c-1.934.348-3.267.995-4.15 1.73-1.276 1.062-2.058 2.674-2.058 5.123 0 1.955.354 3.241.806 4.128.444.871 1.082 1.555 1.965 2.16.898.618 2.025 1.139 3.438 1.662V10.51Zm7 23.945v16.659c2.726-.37 4.477-1.222 5.57-2.253 1.426-1.348 2.366-3.614 2.148-7.517-.29-2.6-1.594-4.163-3.544-5.294-1.208-.702-2.638-1.212-4.173-1.595Z" clip-rule="evenodd"/>
  </g>
  <defs>
    <clipPath id="a">
      <path fill="#fff" d="M0 .478h54v64H0z"/>
    </clipPath>
  </defs>
</svg>
