<svg xmlns="http://www.w3.org/2000/svg" viewBox="0 0 65 59">
  <path
    d="m34.797 38.5-7.388-7.301.088-.09a50.964 50.964 0 0 0 10.79-18.992h8.524V6.293H26.45V.478h-5.818v5.818H.266v5.82H32.76a45.873 45.873 0 0 1-9.221 15.565 45.517 45.517 0 0 1-6.721-9.746h-5.816A51.094 51.094 0 0 0 19.669 31.2L4.864 45.803l4.13 4.13L23.54 35.39l9.048 9.045 2.21-5.933m16.377-14.749h-5.818l-13.089 34.91h5.819l3.257-8.726H55.16l3.288 8.725h5.818L51.174 23.753Zm-7.62 20.362 4.71-12.596 4.713 12.596h-9.423Z" />
</svg>