<svg xmlns="http://www.w3.org/2000/svg" width="225" height="51" fill="none" viewBox="0 0 225 51">
  <path fill="#fff" d="M131.022 7.096v3.08h-10.297s98.506-.342 92.671-.342c.687-.342 2.746-1.027 3.09-1.369h7.551v6.16h-7.551c-.344-.342-2.403-1.027-3.09-1.37-10.64 0-73.793 1.712-94.044 2.054 0 .342-.686 1.027-.686 1.37h-2.059c0 .341.343 2.737.343 3.079 3.089.684 10.983 2.053 17.161 3.422.343-.342 1.03-1.369 2.06-1.026 1.029.684.686 2.053 1.372 2.737 2.746 2.053 5.149 1.369 7.208 4.791-.343.684-2.402 2.053-2.059 2.738.343 1.026 1.03 2.053 1.373 3.08 2.059 6.844-5.149 8.555-9.267 10.266-3.089 2.738-10.297 4.449-10.297 4.449H23.935c-4.805-.685-8.58-2.053-12.356-3.08-2.402-.684-4.462-1.027-6.178-2.395-1.373 0-1.373-.685-1.716-3.423C4.028 37.895 3 34.815 3 34.815S.596 34.473.253 32.078c2.06-1.37 3.089-3.423 5.148-4.791-4.462.342-6.864-3.08-3.775-5.476 3.775-2.738 5.835-.342 5.491 4.107 2.403-1.027 2.403-1.027 4.12-2.738-1.717-6.844 4.118-8.213 2.745-1.369.343-.342 1.716-1.026 2.402-1.369 0-.684 1.373-2.395 1.373-3.08h27.115L41.44 13.94s0-3.764.343-6.844c.687.342 3.776-.342 4.462.342 2.06-.684 3.776-3.422 5.492-3.764V.594s9.61-.342 10.297.342c.343 0 3.432 1.711 4.118 2.738h12.356c2.403 0 8.581-.342 11.67 0V.594h3.432s-.343 2.396 0 3.422h7.208c2.403.685 2.06 0 4.119.685.686-.343 1.03-.343 1.373-.685 2.059.685 7.894 3.08 7.894 3.08s12.013.342 16.818 0Z"/>
</svg>
