<svg xmlns="http://www.w3.org/2000/svg" width="129" height="129" fill="none" viewBox="0 0 129 129">
  <path fill="#fff" fill-rule="evenodd" d="M9.67 89.521c0 16.569 13.431 30 30 30h50.087c16.568 0 30-13.431 30-30V39.434c0-16.568-13.432-30-30-30H39.67c-16.569 0-30 13.432-30 30v50.087Zm30-71.087h50.087c10.145 0 18.61 7.194 20.572 16.76L60.381 85.268c-7.775-7.498-14.27-14.14-20.806-20.826l-.016-.016c-6.505-6.653-13.05-13.349-20.89-20.911v-4.08c0-11.599 9.403-21 21-21Zm-6.53 52.3c-4.683-4.79-9.344-9.557-14.47-14.633v33.42c0 11.598 9.402 21 21 21h33.488c-1.248-1.252-2.468-2.485-3.684-3.713l-.006-.006-.001-.001-.016-.016c-3.821-3.86-7.596-7.672-12.1-11.956-9.345-8.89-16.798-16.512-24.196-24.08l-.016-.015Zm56.617 39.787h-3.78c-3.662-3.535-6.88-6.784-10.13-10.068l-.016-.015v-.001c-2.86-2.89-5.748-5.805-8.958-8.933l43.884-43.996v42.013c0 11.598-9.402 21-21 21Z" clip-rule="evenodd"/>
</svg>
