<svg xmlns="http://www.w3.org/2000/svg" width="55" height="65" fill="none" viewBox="0 0 55 65">
  <g clip-path="url(#a)">
    <path fill="#fff" d="M10.901 54.263H2.896v-6.451h8.005v-7.526H2.896v-7.348h8.005V1.758h19.567c3.677 0 6.878.477 9.606 1.433 2.787.956 5.1 2.3 6.937 4.032 1.898 1.673 3.32 3.704 4.27 6.093.948 2.33 1.422 4.898 1.422 7.706 0 2.807-.474 5.405-1.423 7.795-.948 2.33-2.371 4.36-4.269 6.093-1.838 1.672-4.15 2.986-6.937 3.942-2.727.956-5.93 1.434-9.606 1.434H19.262v7.526h20.99v6.451h-20.99v10.215h-8.36V54.263Zm19.122-21.325c5.1 0 8.747-1.075 10.94-3.225 2.254-2.15 3.38-5.048 3.38-8.691 0-3.644-1.126-6.541-3.38-8.692-2.193-2.15-5.84-3.225-10.94-3.225H19.262v23.833h10.761Z"/>
  </g>
  <defs>
    <clipPath id="a">
      <path fill="#fff" d="M.085.478h54v64h-54z"/>
    </clipPath>
  </defs>
</svg>
