<svg xmlns="http://www.w3.org/2000/svg" width="343" height="129" fill="none" viewBox="0 0 343 129">
  <path fill="#fff" fill-rule="evenodd" d="M81.907 41.244a4.5 4.5 0 0 1 4.5-4.5h14.284c.851 0 1.686.241 2.405.697l4.881 3.087h32.391a4.5 4.5 0 0 1 2.635.852l1.018.735h18.323a4.5 4.5 0 0 1 1.473.248l11.536 3.998 22.966-.824a4.5 4.5 0 0 1 4.661 4.392h110.73l3.163-1.675a4.503 4.503 0 0 1 2.106-.523h10.743a4.5 4.5 0 0 1 4.5 4.5v8.546a4.5 4.5 0 0 1-4.5 4.5h-10.743c-.626 0-1.244-.13-1.816-.383l-3.232-1.425L192.19 66.38l11.657 2.577c.442.098.866.261 1.258.485l14.772 8.424a4.502 4.502 0 0 1 1.498 6.43l-1.223 1.81c.325.659.64 1.375.921 2.131.751 2.022 1.417 4.74 1.035 7.57-.38 2.813-2.297 4.854-3.709 6.083-1.559 1.356-3.441 2.517-5.141 3.445-1.732.945-3.454 1.744-4.773 2.336a187.305 187.305 0 0 1-1.646.731c-.368.164-.495.227-.496.225-.001-.001.024-.014.063-.038-.581.348-1.748.85-2.721 1.266a337.79 337.79 0 0 1-4.26 1.773c-3.203 1.313-6.88 2.79-9.29 3.75a4.501 4.501 0 0 1-1.665.319H47.095a4.48 4.48 0 0 1-1.25-.177l-25.76-7.447a4.5 4.5 0 0 1-3.109-3.205l-3.32-12.952-3.368-2.993a4.5 4.5 0 0 1 .078-6.795l5.783-4.907-.044-.14a4.5 4.5 0 0 1 6.052-5.488l.97.412 9.887-5.584 1.486-3.67a4.5 4.5 0 0 1 4.171-2.812h28.463v-9.907a4.5 4.5 0 0 1 4.5-4.5h7.315l2.958-2.172v-2.117Zm8.998 4.5a4.5 4.5 0 0 1-1.834 3.521l-5.982 4.395a4.5 4.5 0 0 1-2.665.874h-4.29v3.356l3.603 3.173a4.5 4.5 0 0 1-2.975 7.877H41.705l-.938 2.316a4.5 4.5 0 0 1-1.958 2.23l-13.185 7.447c-.17.095-.343.179-.52.251-.234.358-.52.686-.857.971L20.14 85.64l.522.465a4.5 4.5 0 0 1 1.37 2.245l3.023 11.793 22.678 6.556h139.873c2.359-.942 5.574-2.236 8.405-3.396 1.585-.65 3.035-1.252 4.141-1.724a77.989 77.989 0 0 0 1.459-.638c.159-.071.208-.093.17-.071.424-.254 1.005-.513 1.349-.667l.04-.017c.222-.1.427-.19.641-.285.292-.128.6-.265.991-.44 1.241-.556 2.716-1.245 4.143-2.024 1.459-.796 2.697-1.596 3.546-2.335.435-.378.637-.627.721-.74.046-.767-.134-1.8-.575-2.987-.476-1.278-1.106-2.341-1.452-2.823a4.5 4.5 0 0 1-.072-5.146l.086-.127-9.96-5.68-23.63-5.224a4.5 4.5 0 0 1-3.528-4.394v-3.784a4.5 4.5 0 0 1 2.224-3.883l3.541-2.075a4.498 4.498 0 0 1 2.168-.617l13.01-.31a4.475 4.475 0 0 1-1.035-2.613l-19.153.687a4.497 4.497 0 0 1-1.635-.245l-11.615-4.025h-19.02a4.5 4.5 0 0 1-2.635-.852l-1.018-.735h-32.24a4.5 4.5 0 0 1-2.406-.697l-4.88-3.087h-8.482Z" clip-rule="evenodd"/>
</svg>
