<svg xmlns="http://www.w3.org/2000/svg" width="129" height="129" fill="none" viewBox="0 0 129 129">
  <path fill="#fff" fill-rule="evenodd" d="M85.561 45.302c0 11.782-9.552 21.334-21.334 21.334s-21.334-9.552-21.334-21.334 9.552-21.334 21.334-21.334 21.334 9.552 21.334 21.334Zm-9 0c0 6.812-5.522 12.334-12.334 12.334-6.812 0-12.334-5.522-12.334-12.334 0-6.812 5.522-12.334 12.334-12.334 6.812 0 12.334 5.522 12.334 12.334Z" clip-rule="evenodd"/>
  <path fill="#fff" fill-rule="evenodd" d="M64.227 3.773c-23.465 0-42.487 19.023-42.487 42.487 0 8.184 3.24 17.409 6.86 25.226 3.662 7.909 7.982 14.94 10.709 18.962l21.14 32.678a4.5 4.5 0 0 0 7.556 0l21.147-32.677c2.728-4.023 7.05-11.054 10.713-18.963 3.621-7.817 6.862-17.042 6.862-25.226 0-23.466-19.03-42.487-42.5-42.487ZM30.74 46.26c0-18.494 14.993-33.487 33.487-33.487 18.503 0 33.5 14.994 33.5 33.487 0 6.167-2.548 13.93-6.029 21.444-3.425 7.395-7.5 14.019-10.02 17.732a4.542 4.542 0 0 0-.055.082l-17.395 26.88-17.389-26.88-.013-.02a4.436 4.436 0 0 0-.042-.062c-2.52-3.713-6.593-10.337-10.017-17.732-3.48-7.514-6.027-15.276-6.027-21.444Z" clip-rule="evenodd"/>
</svg>
